<svg height="511pt" viewBox="0 -25 511.80705 511" width="511pt" xmlns="http://www.w3.org/2000/svg"><path d="m433.144531 452.671875h-354.476562c-24.316407.007813-46.902344-12.585937-59.683594-33.277344-12.78125-20.691406-13.929687-46.523437-3.035156-68.269531l177.152343-303.359375c9.695313-19.8125 28.28125-33.800781 50.003907-37.632813 4.222656-.78125 8.507812-1.179687 12.800781-1.195312 26.648438-.164062 51.042969 14.917969 62.804688 38.828125l177.152343 303.359375c10.894531 21.746094 9.746094 47.578125-3.035156 68.269531-12.777344 20.691407-35.363281 33.285157-59.683594 33.277344zm0 0" fill="#fec108"/><path d="m407.542969 452.671875h-328.875c-24.316407.007813-46.902344-12.585937-59.683594-33.277344-12.78125-20.691406-13.929687-46.523437-3.035156-68.269531l177.152343-303.359375c9.695313-19.8125 28.28125-33.800781 50.003907-37.632813 21.726562 3.832032 40.3125 17.820313 50.007812 37.632813l177.152344 303.359375c10.890625 21.746094 9.742187 47.578125-3.035156 68.269531-12.78125 20.691407-35.367188 33.285157-59.6875 33.277344zm0 0" fill="#ffdc00"/><path d="m290.039062 375.871094c.003907 9.054687-3.589843 17.738281-9.992187 24.140625-6.402344 6.402343-15.085937 9.996093-24.140625 9.996093-4.394531.03125-8.753906-.839843-12.800781-2.5625-12.886719-5.183593-21.332031-17.679687-21.332031-31.574218 0-13.890625 8.445312-26.386719 21.332031-31.570313 4.046875-1.722656 8.40625-2.59375 12.800781-2.5625 9.054688 0 17.738281 3.59375 24.140625 9.996094s9.996094 15.085937 9.992187 24.136719zm0 0" fill="#37474f"/><path d="m290.039062 111.339844v162.132812c.003907 9.054688-3.589843 17.738282-9.992187 24.140625-6.402344 6.398438-15.085937 9.996094-24.140625 9.992188-4.394531.035156-8.753906-.835938-12.800781-2.558594-12.902344-5.164063-21.355469-17.675781-21.332031-31.574219v-162.132812c-.023438-13.898438 8.429687-26.410156 21.332031-31.574219 4.046875-1.722656 8.40625-2.59375 12.800781-2.558594 9.058594-.011719 17.746094 3.578125 24.148438 9.984375 6.40625 6.402344 9.996093 15.089844 9.984374 24.148438zm0 0" fill="#37474f"/><path d="m264.441406 375.871094c0-17.4375-9.550781-31.570313-21.335937-31.570313-11.78125 0-21.332031 14.132813-21.332031 31.570313s9.550781 31.574218 21.332031 31.574218c11.785156 0 21.335937-14.136718 21.335937-31.574218zm0 0" fill="#607d8b"/><path d="m264.441406 111.339844v162.132812c.023438 13.898438-8.429687 26.410156-21.335937 31.574219-12.902344-5.164063-21.355469-17.675781-21.332031-31.574219v-162.132812c-.023438-13.898438 8.429687-26.410156 21.332031-31.574219 4.234375 1.707031 8.089843 4.230469 11.351562 7.425781 6.378907 6.417969 9.96875 15.097656 9.984375 24.148438zm0 0" fill="#607d8b"/><path d="m433.101562 461.207031h-354.390624c-27.28125-.003906-52.613282-14.128906-66.957032-37.335937-14.339844-23.207032-15.644531-52.183594-3.441406-76.585938l177.457031-303.855468c13.46875-26.484376 40.707031-43.128907 70.421875-43.027344 29.714844.105468 56.835938 16.933594 70.121094 43.511718l176.929688 302.890626c12.421874 24.398437 11.269531 53.5-3.039063 76.839843-14.3125 23.339844-39.722656 37.566407-67.101563 37.5625zm-177.195312-443.734375c-23.425781-.269531-44.902344 13.003906-55.136719 34.074219l-177.460937 303.859375c-9.335938 19.113281-8.164063 41.683594 3.101562 59.726562 11.265625 18.039063 31.03125 29.003907 52.300782 29.007813h354.390624c21.367188 0 41.210938-11.0625 52.441407-29.238281 11.234375-18.175782 12.253906-40.871094 2.695312-59.980469l-176.925781-302.890625c-10.191406-21.300781-31.792969-34.773438-55.40625-34.558594zm0 0"/><path d="m255.90625 418.539062c-23.5625 0-42.664062-19.101562-42.664062-42.667968 0-23.5625 19.101562-42.664063 42.664062-42.664063 23.566406 0 42.667969 19.101563 42.667969 42.664063-.027344 23.554687-19.113281 42.640625-42.667969 42.667968zm0-68.265624c-14.136719 0-25.597656 11.460937-25.597656 25.597656 0 14.140625 11.460937 25.601562 25.597656 25.601562 14.140625 0 25.601562-11.460937 25.601562-25.601562-.015624-14.128906-11.46875-25.582032-25.601562-25.597656zm0 0"/><path d="m255.90625 316.140625c-23.550781-.027344-42.636719-19.113281-42.664062-42.667969v-162.132812c0-23.566406 19.101562-42.667969 42.664062-42.667969 23.566406 0 42.667969 19.101563 42.667969 42.667969v162.132812c-.027344 23.554688-19.113281 42.640625-42.667969 42.667969zm0-230.402344c-14.132812.015625-25.582031 11.46875-25.597656 25.601563v162.132812c0 14.136719 11.460937 25.601563 25.597656 25.601563 14.140625 0 25.601562-11.464844 25.601562-25.601563v-162.132812c-.015624-14.132813-11.46875-25.585938-25.601562-25.601563zm0 0"/></svg>